<svg id="Layer_1" data-name="Layer 1" xmlns="http://www.w3.org/2000/svg" viewBox="0 0 1000 1000"><defs><style>.cls-1{fill:#7885ff;}.cls-2{fill:#fff;}</style></defs><title>cc-logo.svg</title><rect class="cls-1" width="999" height="999" rx="499.5" ry="499.5"/><path class="cls-2" d="M535.31,503.89a26.39,26.39,0,1,1-26.39-26.4A26.38,26.38,0,0,1,535.31,503.89Z"/><path class="cls-2" d="M542.8,287.85C422.92,268.45,310,349.91,290.62,469.79S352.68,702.57,472.56,722,705.35,659.9,724.74,540,662.68,307.24,542.8,287.85Zm87.64,122.52L578.07,570.8a18.11,18.11,0,0,1-11.59,11.59L406,634.75a18.11,18.11,0,0,1-22.82-22.83l52.35-160.43a18.12,18.12,0,0,1,11.6-11.6L607.6,387.55A18.1,18.1,0,0,1,630.43,410.37Z"/><path class="cls-2" d="M93.4,504.15q0-85.66,32.29-161.45t89-131.79q56.65-56,133.11-89T511.18,89a385.32,385.32,0,0,1,121.25,19.11,416.37,416.37,0,0,1,107.41,53.38A468.91,468.91,0,0,1,867.48,295a60.88,60.88,0,0,1-18,83.17h0a61.07,61.07,0,0,1-84.71-17.53q-9.21-13.94-19.63-27.15a342.86,342.86,0,0,0-66.56-64.58,312.67,312.67,0,0,0-79.07-42.17,255.78,255.78,0,0,0-87-15.16,282.06,282.06,0,0,0-114.66,23.72,299.91,299.91,0,0,0-94.23,64.58,319,319,0,0,0-63.92,93.57,276.37,276.37,0,0,0,0,224,301.56,301.56,0,0,0,63.92,92.25A313.89,313.89,0,0,0,397.18,773q53.37,23.72,114,23.72a264.43,264.43,0,0,0,80.4-12.52,308.73,308.73,0,0,0,75.12-35.58,354.72,354.72,0,0,0,65.9-55.35q6.75-7.19,13-14.67c23.11-27.48,64.62-29.59,90-4.2l1.5,1.5c21.85,21.85,24.12,56.78,4.75,80.86A459.82,459.82,0,0,1,720.73,862.63q-93.59,56.68-209.55,56.67-87,0-163.42-32.95t-133.11-89q-56.68-56-89-131.79T93.4,504.15Z"/></svg>